<svg xmlns="http://www.w3.org/2000/svg" width="22" height="21" fill="none"><path fill="#fff" stroke="#fff" stroke-width=".2" d="m15.986 7.184.019.045.047.013c2.936.814 5.097 3.511 5.097 6.703a6.963 6.963 0 0 1-6.955 6.955 6.937 6.937 0 0 1-5.08-2.21l-.03-.031H4.152c-.998 0-1.81-.812-1.81-1.81 0-.572.268-1.083.685-1.415l.098-.078-.098-.079a1.806 1.806 0 0 1 0-2.831l.098-.078-.098-.079a1.806 1.806 0 0 1 0-2.831l.098-.079-.098-.078a1.806 1.806 0 0 1-.685-1.416c0-.997.812-1.809 1.81-1.809h1.272l-.108-.156a1.798 1.798 0 0 1 0-2.045l.108-.157H1.909C.912 3.718.1 2.907.1 1.91.1.912.912.1 1.91.1h10.167a1.811 1.811 0 0 1 1.491 2.831l-.107.157h3.513c.998 0 1.81.812 1.81 1.81 0 .997-.812 1.808-1.81 1.808h-1.27l.107.157c.069.1.127.207.175.321Zm-1.205-.17.052-.19a1.178 1.178 0 0 0-.515-.118H4.15a1.18 1.18 0 0 0 0 2.358h5.093l.029-.029a6.933 6.933 0 0 1 5.509-2.02Zm-6.208 2.84.116-.16H4.15a1.18 1.18 0 0 0 0 2.358H7.5l.021-.071a6.936 6.936 0 0 1 1.052-2.128Zm-1.24 2.945.02-.116H4.15a1.18 1.18 0 0 0 0 2.358H7.324l-.016-.114a6.984 6.984 0 0 1 .025-2.128Zm.142 2.946-.02-.074H4.15a1.18 1.18 0 0 0 0 2.358H8.564l-.107-.157a6.927 6.927 0 0 1-.982-2.127ZM18.153 4.897a1.18 1.18 0 0 0-1.179-1.179H6.806a1.18 1.18 0 0 0 0 2.358h10.168a1.18 1.18 0 0 0 1.18-1.179ZM.73 1.91c0 .65.529 1.18 1.18 1.18h10.167a1.18 1.18 0 0 0 0-2.359H1.91C1.26.73.73 1.259.73 1.91Zm7.138 12.036a6.332 6.332 0 0 0 6.326 6.325 6.332 6.332 0 0 0 6.325-6.325 6.332 6.332 0 0 0-6.325-6.326 6.332 6.332 0 0 0-6.326 6.326Z"/></svg>